<svg width="70" height="70" viewBox="0 0 70 70" fill="none" xmlns="http://www.w3.org/2000/svg">
<path d="M24.0625 14.4922C23.3078 14.4922 22.6953 15.1047 22.6953 15.8594C22.6953 16.6141 23.3078 17.2266 24.0625 17.2266C24.8172 17.2266 25.4297 16.6141 25.4297 15.8594C25.4297 15.1047 24.8172 14.4922 24.0625 14.4922Z" fill="#CEA561"/>
<path d="M68.6328 33.6328H64.0879C63.7468 26.4688 60.7307 19.7168 55.507 14.493C50.2832 9.26926 43.5312 6.25324 36.3672 5.91213V1.36719C36.3672 0.61209 35.7551 0 35 0C34.2449 0 33.6328 0.61209 33.6328 1.36719V5.91213C26.4688 6.25324 19.7168 9.26926 14.493 14.493C9.26926 19.7168 6.25324 26.4688 5.91213 33.6328H1.36719C0.61209 33.6328 0 34.2449 0 35C0 35.7551 0.61209 36.3672 1.36719 36.3672H5.91213C6.25324 43.5312 9.26926 50.2832 14.493 55.507C19.7168 60.7307 26.4688 63.7468 33.6328 64.0879V68.6328C33.6328 69.3879 34.2449 70 35 70C35.7551 70 36.3672 69.3879 36.3672 68.6328V64.0879C43.5312 63.7468 50.2832 60.7307 55.507 55.507C60.7307 50.2832 63.7468 43.5312 64.0879 36.3672H68.6328C69.3879 36.3672 70 35.7551 70 35C70 34.2449 69.3879 33.6328 68.6328 33.6328ZM33.6328 61.3494C20.3886 60.6344 9.36564 49.6114 8.65061 36.3672H11.7991C12.483 48.0964 21.9036 57.517 33.6328 58.2009V61.3494ZM35 50.0391C34.2449 50.0391 33.6328 50.6512 33.6328 51.4062V55.4612C23.412 54.785 15.215 46.5881 14.5388 36.3672H18.5938C19.3488 36.3672 19.9609 35.7551 19.9609 35C19.9609 34.2449 19.3488 33.6328 18.5938 33.6328H14.5383C14.8626 28.6984 16.9375 24.0938 20.4656 20.5462C20.9979 20.0108 20.9955 19.1451 20.4601 18.6128C19.9246 18.0804 19.059 18.0827 18.5266 18.6182C14.4855 22.6819 12.1268 27.9705 11.799 33.6328H8.65061C9.36564 20.3886 20.3886 9.36564 33.6328 8.65061V11.7998C32.0687 11.8912 30.5205 12.1378 29.0146 12.5397C28.2851 12.7344 27.8515 13.4836 28.0462 14.2131C28.2409 14.9427 28.9901 15.3762 29.7196 15.1815C30.9959 14.841 32.3072 14.6258 33.6328 14.5379V18.5938C33.6328 19.3488 34.2449 19.9609 35 19.9609C35.7551 19.9609 36.3672 19.3488 36.3672 18.5938V14.5388C46.588 15.215 54.785 23.4119 55.4612 33.6328H51.4062C50.6512 33.6328 50.0391 34.2449 50.0391 35C50.0391 35.7551 50.6512 36.3672 51.4062 36.3672H55.4612C54.785 46.588 46.5881 54.785 36.3672 55.4612V51.4062C36.3672 50.6512 35.7551 50.0391 35 50.0391ZM36.3672 61.3494V58.2009C48.0964 57.517 57.517 48.0964 58.2009 36.3672H61.3494C60.6344 49.6114 49.6114 60.6344 36.3672 61.3494ZM58.2009 33.6328C57.517 21.9036 48.0964 12.483 36.3672 11.7991V8.65061C49.6114 9.36564 60.6344 20.3886 61.3494 33.6328H58.2009Z" fill="#CEA561"/>
<path d="M45.9375 33.6328H44.4711C43.8696 29.448 40.5519 26.1304 36.3672 25.5289V24.0625C36.3672 23.3074 35.7551 22.6953 35 22.6953C34.2449 22.6953 33.6328 23.3074 33.6328 24.0625V25.5289C29.448 26.1304 26.1304 29.4481 25.5289 33.6328H24.0625C23.3074 33.6328 22.6953 34.2449 22.6953 35C22.6953 35.7551 23.3074 36.3672 24.0625 36.3672H25.5289C26.1304 40.552 29.4481 43.8696 33.6328 44.4711V45.9375C33.6328 46.6926 34.2449 47.3047 35 47.3047C35.7551 47.3047 36.3672 46.6926 36.3672 45.9375V44.4711C40.552 43.8696 43.8696 40.5519 44.4711 36.3672H45.9375C46.6926 36.3672 47.3047 35.7551 47.3047 35C47.3047 34.2449 46.6926 33.6328 45.9375 33.6328ZM33.6328 41.6984C30.9582 41.1533 28.8467 39.0418 28.3016 36.3672H33.6328V41.6984ZM33.6328 33.6328H28.3016C28.8467 30.9582 30.9582 28.8467 33.6328 28.3016V33.6328ZM36.3672 41.6984V36.3672H41.6984C41.1533 39.0418 39.0418 41.1533 36.3672 41.6984ZM36.3672 33.6328V28.3016C39.0418 28.8467 41.1533 30.9582 41.6984 33.6328H36.3672Z" fill="#CEA561"/>
</svg>
