<svg width="69" height="69" viewBox="0 0 69 69" fill="none" xmlns="http://www.w3.org/2000/svg">
<g clip-path="url(#clip0)">
<path d="M8.08594 18.875C8.08594 18.1312 7.48212 17.5273 6.73828 17.5273C5.99444 17.5273 5.39062 18.1312 5.39062 18.875C5.39062 19.6188 5.99444 20.2227 6.73828 20.2227C7.48212 20.2227 8.08594 19.6188 8.08594 18.875Z" fill="#CEA561"/>
<path d="M64.947 10.7906H46.9248C46.3452 8.41906 46.1046 6.99402 47.766 4.32345C48.1208 3.7528 48.0008 3.00843 47.4854 2.57782C46.6763 1.90136 45.8319 1.10276 44.9312 0.333652C44.5011 -0.0332689 43.8878 -0.0927552 43.3945 0.184673C40.6634 1.72342 37.8849 1.71974 35.1365 0.173617C34.7264 -0.0569581 34.2252 -0.0574846 33.8151 0.173617C31.0677 1.71974 28.2892 1.72342 25.5565 0.184673C25.0638 -0.0932816 24.4494 -0.0332689 24.0199 0.334705C23.1492 1.07907 22.269 1.90767 21.4672 2.57782C20.9518 3.00843 20.8323 3.7528 21.1866 4.32293C22.847 6.99402 22.6075 8.41959 22.0284 10.7906H4.04244C1.81355 10.7906 0 12.6042 0 14.8331V22.918C0 25.1469 1.81355 26.9604 4.04244 26.9604H5.38957V60.9156H4.04244C3.29807 60.9156 2.69479 61.5188 2.69479 62.2632V66.3056H1.34766C0.603287 66.3056 0 66.9089 0 67.6528C0 68.3971 0.603287 69.0004 1.34766 69.0004H67.6418C68.3857 69.0004 68.9895 68.3971 68.9895 67.6528C68.9895 66.9089 68.3857 66.3056 67.6418 66.3056H66.2942V62.2632C66.2942 61.5188 65.6909 60.9156 64.947 60.9156H63.5994V26.9604H64.947C67.1759 26.9604 68.9895 25.1469 68.9895 22.918V14.8331C68.9895 12.6042 67.1759 10.7906 64.947 10.7906ZM25.0927 2.97527C28.175 4.42031 31.3888 4.38504 34.4758 2.86998C37.5643 4.38504 40.7777 4.42031 43.8594 2.97527C44.2126 3.28902 44.519 3.56645 44.9022 3.90652C42.5601 8.4238 44.5753 10.7959 45.1186 15.4806C45.8324 21.6103 41.2693 24.1277 35.9229 26.226C35.3876 26.4366 34.899 26.6282 34.4753 26.8151C34.0557 26.6303 33.5724 26.4408 33.0423 26.2323C27.9081 24.2167 23.1044 21.7519 23.834 15.48C24.3778 10.7922 26.393 8.42801 24.0499 3.90652C24.4021 3.59488 24.7469 3.28323 25.0927 2.97527ZM2.69479 22.918V14.8331C2.69479 14.0903 3.29913 13.4844 4.04244 13.4844H21.4156C21.3172 14.0039 21.2272 14.5651 21.1572 15.1695C20.7376 18.7792 21.7799 21.8246 24.2589 24.2651H4.04244C3.29913 24.2651 2.69479 23.6607 2.69479 22.918ZM33.1471 35.0448V60.9156H25.0627V35.0448H33.1471ZM43.9268 35.0448V60.9156H35.8419V35.0448H43.9268ZM60.9046 35.0448V46.633H46.6215V35.0448H60.9046ZM22.3674 46.633H8.08488V35.0448H22.3674V46.633ZM8.08488 49.3278H22.3674V60.9156H8.08488V49.3278ZM5.38957 66.3056V63.6109H63.5994V66.3056H5.38957ZM46.6215 60.9156V49.3278H60.9046V60.9156H46.6215ZM60.9046 32.35H8.08488V26.9604H28.0365C29.4747 27.7242 30.8982 28.2859 32.0579 28.7413C32.8028 29.0335 33.4466 29.2862 33.843 29.4973C34.2389 29.7078 34.7132 29.7078 35.1091 29.4973C35.5097 29.2835 36.1577 29.0293 36.9079 28.735C38.0644 28.2807 39.4847 27.7211 40.9177 26.9604H60.9046V32.35ZM66.2942 22.918C66.2942 23.6607 65.6898 24.2651 64.947 24.2651H44.6964C47.1748 21.8256 48.2161 18.7802 47.796 15.17C47.726 14.5656 47.6354 14.006 47.5375 13.4859H64.947C65.6898 13.4859 66.2942 14.0903 66.2942 14.8331V22.918Z" fill="#CEA561"/>
<path d="M12.1284 20.2227H18.3271C19.0709 20.2227 19.6742 19.6194 19.6742 18.875C19.6742 18.1306 19.0709 17.5273 18.3271 17.5273H12.1284C11.3845 17.5273 10.7812 18.1306 10.7812 18.875C10.7812 19.6194 11.3845 20.2227 12.1284 20.2227Z" fill="#CEA561"/>
<path d="M29.8779 16.5844L29.2178 20.431C29.1309 20.9363 29.3383 21.4475 29.7537 21.7491C30.1685 22.0503 30.7181 22.0903 31.1724 21.8518L34.6284 20.0361L38.0844 21.8518C38.5387 22.0903 39.0883 22.0503 39.5031 21.7491C39.9179 21.4475 40.1259 20.9363 40.039 20.431L39.3789 16.5844L42.1742 13.8601C42.5411 13.5021 42.6733 12.9667 42.5148 12.4787C42.3563 11.9907 41.9352 11.6354 41.4277 11.5617L37.5648 10.9995L35.8365 7.49873C35.6096 7.03916 35.1416 6.74805 34.6284 6.74805C34.1156 6.74805 33.6471 7.03916 33.4202 7.49873L31.6925 10.999L27.829 11.5612C27.3216 11.6354 26.8999 11.9907 26.7414 12.4787C26.5835 12.9662 26.7156 13.5016 27.0826 13.8596L29.8779 16.5844ZM32.7811 13.5642C33.2197 13.5 33.5987 13.2247 33.795 12.8272L34.6284 11.1395L35.4612 12.8272C35.6575 13.2247 36.0371 13.5 36.4756 13.5642L38.3381 13.8354L36.9905 15.1488C36.673 15.4589 36.5277 15.9047 36.603 16.3417L36.921 18.1963L35.2548 17.3208C34.8626 17.115 34.3941 17.115 34.0014 17.3208L32.3353 18.1963L32.6537 16.3417C32.7285 15.9047 32.5837 15.4589 32.2663 15.1488L30.9181 13.8354L32.7811 13.5642Z" fill="#CEA561"/>
</g>
<defs>
<clipPath id="clip0">
<rect width="69" height="69" fill="white"/>
</clipPath>
</defs>
</svg>
